<?xml version="1.0" standalone="no"?>
<!DOCTYPE svg PUBLIC "-//W3C//DTD SVG 20010904//EN"
 "http://www.w3.org/TR/2001/REC-SVG-20010904/DTD/svg10.dtd">
<svg version="1.0" xmlns="http://www.w3.org/2000/svg"
 width="528.000000pt" height="528.000000pt" viewBox="0 0 528.000000 528.000000"
 preserveAspectRatio="xMidYMid meet">
<metadata>
Created by potrace 1.11, written by Peter Selinger 2001-2013
</metadata>
<g transform="translate(0.000000,528.000000) scale(0.100000,-0.100000)"
fill="#000000" stroke="none">
<path d="M2170 5216 c-63 -12 -173 -45 -235 -71 -299 -125 -519 -241 -665
-352 -25 -19 -88 -73 -140 -120 -217 -198 -289 -286 -398 -493 -84 -160 -159
-408 -177 -586 -3 -27 -7 -69 -10 -94 -3 -25 -8 -117 -11 -205 -6 -147 -1
-216 22 -297 3 -11 0 -18 -9 -18 -31 0 -114 -107 -155 -202 -76 -174 -92 -335
-51 -503 33 -131 102 -293 155 -362 28 -37 94 -83 119 -83 9 0 15 -10 16 -27
1 -16 3 -55 5 -88 10 -214 52 -463 105 -625 48 -149 144 -340 224 -450 34 -46
147 -161 198 -202 16 -13 43 -36 60 -51 18 -16 64 -49 102 -74 39 -25 82 -54
97 -64 96 -66 268 -135 387 -155 18 -3 43 -8 55 -10 81 -18 279 -45 371 -51
225 -14 935 -5 964 11 3 2 31 7 61 10 254 30 477 98 602 184 24 16 62 40 85
53 99 57 291 226 379 334 39 47 59 79 125 200 37 67 96 212 120 293 10 37 23
81 29 97 8 26 16 70 45 245 3 13 7 65 11 115 4 49 8 104 9 120 2 17 3 53 4 81
1 50 1 51 40 63 49 14 111 82 154 166 30 61 100 245 92 245 -3 0 0 11 5 25 25
65 31 213 14 308 -16 85 -45 177 -56 177 -4 0 -8 7 -8 16 0 41 -87 162 -142
198 -25 16 -25 17 -10 59 28 78 19 403 -18 617 -6 30 -13 73 -16 95 -3 22 -28
109 -56 195 -73 225 -180 417 -307 554 -36 39 -71 74 -77 78 -6 4 -25 20 -41
35 -213 199 -297 261 -491 360 -268 137 -468 217 -616 248 -98 21 -317 17
-406 -7 -77 -20 -77 -20 -185 9 -42 11 -312 10 -375 -1z m-255 -3820 c46 -8
46 -47 0 -69 l-34 -16 -31 44 c-16 24 -30 46 -30 50 0 5 33 2 95 -9z m1566 -4
c-5 -9 -24 -34 -43 -55 -31 -37 -35 -38 -60 -26 -18 8 -28 20 -28 33 0 42 27
59 100 63 36 2 39 1 31 -15z"/>
</g>
</svg>
